<?xml version="1.0" standalone="no"?>
<!DOCTYPE svg PUBLIC "-//W3C//DTD SVG 20010904//EN"
 "http://www.w3.org/TR/2001/REC-SVG-20010904/DTD/svg10.dtd">
<svg version="1.0" xmlns="http://www.w3.org/2000/svg"
 width="225.000000pt" height="225.000000pt" viewBox="0 0 225.000000 225.000000"
 preserveAspectRatio="xMidYMid meet">
<metadata>
Created by potrace 1.11, written by Peter Selinger 2001-2013
</metadata>
<g transform="translate(0.000000,225.000000) scale(0.100000,-0.100000)"
fill="#000000" stroke="none">
<path d="M341 2234 c-168 -45 -295 -177 -330 -342 -15 -74 -15 -1460 0 -1534
36 -167 163 -298 334 -343 88 -23 1472 -23 1560 0 171 45 298 176 334 343 15
74 15 1460 0 1534 -36 167 -163 298 -334 343 -86 22 -1481 21 -1564 -1z m946
-318 c130 -35 240 -122 295 -234 44 -88 51 -198 19 -283 -25 -66 -84 -137
-152 -183 l-48 -32 65 -28 c165 -72 247 -231 223 -431 -23 -191 -186 -368
-384 -420 -69 -18 -211 -20 -287 -4 -92 19 -177 66 -249 138 -71 72 -110 141
-133 240 -14 60 -14 61 7 66 47 10 272 33 279 29 4 -3 8 -15 8 -27 1 -30 36
-107 63 -135 87 -94 246 -85 328 18 43 53 65 155 51 233 -24 128 -99 197 -216
197 -34 0 -77 -4 -95 -10 -19 -5 -36 -8 -38 -7 -1 2 5 58 14 124 l16 122 51 6
c101 14 177 66 196 135 38 137 -32 245 -160 245 -101 0 -164 -52 -196 -160
l-14 -52 -136 23 c-75 13 -139 26 -142 29 -8 8 26 122 54 177 53 105 161 189
285 222 70 19 229 20 296 2z"/>
</g>
</svg>
